<svg xmlns="http://www.w3.org/2000/svg" width="200" height="200" viewBox="0 0 200 200">
  <defs>
    <path id="steam" d="M20.8,57.2c0,0,21.9-12.8,45.4,0.4s36,20.6,38,23.2c0,0,7.2-9.9-7.7-23.4S29.1,54.8,20.8,57.2z"/>
    <filter id="steam-filter" x="-50%" y="-50%" width="200%" height="200%">
      <feGaussianBlur in="SourceGraphic" stdDeviation="4" result="glow" />
      <feMerge>
        <feMergeNode in="glow" />
        <feMergeNode in="SourceGraphic" />
      </feMerge>
    </filter>
  </defs>
  <g id="coffee-cup">
    <path fill="#8B4513" stroke="#000000" stroke-width="3" d="M45.7,102.2l2-55.8c0.1-1.9,1.7-3.4,3.6-3.4h54.4c1.9,0,3.5,1.5,3.6,3.4l2,55.8c0.1,1.3-0.4,2.6-1.4,3.4c-2.1,1.9-5.6,3.6-9.6,3.6H56.6C51.6,105.8,47.7,104.1,45.7,102.2z"/>
    <rect x="43" y="38" fill="#8B4513" stroke="#000000" stroke-width="3" width="100" height="64"/>
    <circle cx="95" cy="62" r="25" fill="#DAA520" stroke="#000000" stroke-width="3"/>
    <use href="#steam" x="75" y="20" />
    <use href="#steam" x="80" y="15" />
    <use href="#steam" x="85" y="18" />
    <use href="#steam" x="90" y="22" />
    <use href="#steam" x="95" y="19" filter="url(#steam-filter)" />
  </g>
</svg>
